<mxfile host="Electron" modified="2024-01-08T08:24:33.191Z" agent="Mozilla/5.0 (X11; Linux x86_64) AppleWebKit/537.36 (KHTML, like Gecko) draw.io/22.1.2 Chrome/114.0.5735.289 Electron/25.9.4 Safari/537.36" etag="N0vQnW-iyM5sai93acsK" version="22.1.2" type="device">
  <diagram name="Page-1" id="G2VfLdlO1kg1q0BC2XAd">
    <mxGraphModel dx="660" dy="746" grid="1" gridSize="10" guides="1" tooltips="1" connect="1" arrows="1" fold="1" page="1" pageScale="1" pageWidth="827" pageHeight="1169" math="0" shadow="0">
      <root>
        <mxCell id="0" />
        <mxCell id="1" parent="0" />
        <mxCell id="gy82GStOWfqsSPjw-Yjp-1" value="Start" style="ellipse;html=1;" vertex="1" parent="1">
          <mxGeometry x="182.5" y="40" width="30" height="30" as="geometry" />
        </mxCell>
        <mxCell id="gy82GStOWfqsSPjw-Yjp-2" value="" style="endArrow=open;html=1;rounded=0;align=center;verticalAlign=top;endFill=0;labelBackgroundColor=none;endSize=6;" edge="1" source="gy82GStOWfqsSPjw-Yjp-1" parent="1" target="gy82GStOWfqsSPjw-Yjp-3">
          <mxGeometry relative="1" as="geometry">
            <mxPoint x="207.5" y="50" as="targetPoint" />
          </mxGeometry>
        </mxCell>
        <mxCell id="gy82GStOWfqsSPjw-Yjp-3" value="Schüler nehmen&lt;br&gt;Sitzplatz ein" style="html=1;align=center;verticalAlign=top;rounded=1;absoluteArcSize=1;arcSize=10;dashed=0;whiteSpace=wrap;" vertex="1" parent="1">
          <mxGeometry x="127.5" y="105" width="140" height="40" as="geometry" />
        </mxCell>
        <mxCell id="gy82GStOWfqsSPjw-Yjp-4" value="Aufgaben werden&lt;br&gt;verteilt" style="html=1;align=center;verticalAlign=top;rounded=1;absoluteArcSize=1;arcSize=10;dashed=0;whiteSpace=wrap;" vertex="1" parent="1">
          <mxGeometry x="127.5" y="185" width="140" height="40" as="geometry" />
        </mxCell>
        <mxCell id="gy82GStOWfqsSPjw-Yjp-5" value="" style="endArrow=open;startArrow=none;endFill=0;startFill=0;endSize=8;html=1;verticalAlign=bottom;labelBackgroundColor=none;strokeWidth=1;rounded=0;" edge="1" parent="1" source="gy82GStOWfqsSPjw-Yjp-3" target="gy82GStOWfqsSPjw-Yjp-4">
          <mxGeometry width="160" relative="1" as="geometry">
            <mxPoint x="227.5" y="275" as="sourcePoint" />
            <mxPoint x="387.5" y="275" as="targetPoint" />
          </mxGeometry>
        </mxCell>
        <mxCell id="gy82GStOWfqsSPjw-Yjp-8" value="" style="html=1;align=center;verticalAlign=top;rounded=1;absoluteArcSize=1;arcSize=20;dashed=1;whiteSpace=wrap;" vertex="1" parent="1">
          <mxGeometry x="10" y="250" width="540" height="200" as="geometry" />
        </mxCell>
        <mxCell id="gy82GStOWfqsSPjw-Yjp-6" value="Klassenarbeit&lt;br&gt;schreiben" style="html=1;align=center;verticalAlign=top;rounded=1;absoluteArcSize=1;arcSize=10;dashed=0;whiteSpace=wrap;" vertex="1" parent="1">
          <mxGeometry x="30" y="330" width="140" height="40" as="geometry" />
        </mxCell>
        <mxCell id="gy82GStOWfqsSPjw-Yjp-9" value="Feueralarm" style="html=1;shape=mxgraph.infographic.ribbonSimple;notch1=20;notch2=0;align=center;verticalAlign=middle;fontSize=14;fontStyle=0;fillColor=#FFFFFF;flipH=0;spacingRight=0;spacingLeft=14;whiteSpace=wrap;" vertex="1" parent="1">
          <mxGeometry x="460" y="270" width="170" height="40" as="geometry" />
        </mxCell>
        <mxCell id="gy82GStOWfqsSPjw-Yjp-10" value="" style="shape=mxgraph.lean_mapping.electronic_info_flow_edge;html=1;rounded=0;entryX=0.5;entryY=0;entryDx=0;entryDy=0;exitX=0;exitY=0;exitDx=127.5;exitDy=40;exitPerimeter=0;" edge="1" parent="1" source="gy82GStOWfqsSPjw-Yjp-9" target="gy82GStOWfqsSPjw-Yjp-37">
          <mxGeometry width="160" relative="1" as="geometry">
            <mxPoint x="690" y="290" as="sourcePoint" />
            <mxPoint x="579.9313147417652" y="425.4937043839582" as="targetPoint" />
          </mxGeometry>
        </mxCell>
        <mxCell id="gy82GStOWfqsSPjw-Yjp-11" value="Klassenraum&lt;br&gt;verlassen" style="html=1;align=center;verticalAlign=top;rounded=1;absoluteArcSize=1;arcSize=10;dashed=0;whiteSpace=wrap;" vertex="1" parent="1">
          <mxGeometry x="530" y="550" width="140" height="40" as="geometry" />
        </mxCell>
        <mxCell id="gy82GStOWfqsSPjw-Yjp-12" value="Klassenarbeit&lt;br&gt;einsammeln" style="html=1;align=center;verticalAlign=top;rounded=1;absoluteArcSize=1;arcSize=10;dashed=0;whiteSpace=wrap;" vertex="1" parent="1">
          <mxGeometry x="127.5" y="480" width="140" height="40" as="geometry" />
        </mxCell>
        <mxCell id="gy82GStOWfqsSPjw-Yjp-18" value="Schüler gehen&lt;br&gt;nach Hause" style="html=1;align=center;verticalAlign=top;rounded=1;absoluteArcSize=1;arcSize=10;dashed=0;whiteSpace=wrap;" vertex="1" parent="1">
          <mxGeometry x="530" y="625" width="140" height="40" as="geometry" />
        </mxCell>
        <mxCell id="gy82GStOWfqsSPjw-Yjp-19" value="" style="endArrow=open;startArrow=none;endFill=0;startFill=0;endSize=8;html=1;verticalAlign=bottom;labelBackgroundColor=none;strokeWidth=1;rounded=0;" edge="1" parent="1" source="gy82GStOWfqsSPjw-Yjp-11" target="gy82GStOWfqsSPjw-Yjp-18">
          <mxGeometry width="160" relative="1" as="geometry">
            <mxPoint x="300" y="680" as="sourcePoint" />
            <mxPoint x="460" y="680" as="targetPoint" />
          </mxGeometry>
        </mxCell>
        <mxCell id="gy82GStOWfqsSPjw-Yjp-20" value="Ende" style="ellipse;html=1;" vertex="1" parent="1">
          <mxGeometry x="585" y="700" width="30" height="30" as="geometry" />
        </mxCell>
        <mxCell id="gy82GStOWfqsSPjw-Yjp-21" value="" style="endArrow=open;html=1;rounded=0;align=center;verticalAlign=top;endFill=0;labelBackgroundColor=none;endSize=6;" edge="1" target="gy82GStOWfqsSPjw-Yjp-20" parent="1" source="gy82GStOWfqsSPjw-Yjp-18">
          <mxGeometry relative="1" as="geometry">
            <mxPoint x="590.0374999999999" y="650" as="sourcePoint" />
          </mxGeometry>
        </mxCell>
        <mxCell id="gy82GStOWfqsSPjw-Yjp-28" value="" style="html=1;points=[];perimeter=orthogonalPerimeter;fillColor=strokeColor;rotation=90;" vertex="1" parent="1">
          <mxGeometry x="195" y="240" width="5" height="80" as="geometry" />
        </mxCell>
        <mxCell id="gy82GStOWfqsSPjw-Yjp-29" value="" style="endArrow=open;startArrow=none;endFill=0;startFill=0;endSize=8;html=1;verticalAlign=bottom;labelBackgroundColor=none;strokeWidth=1;rounded=0;entryX=0.028;entryY=0.484;entryDx=0;entryDy=0;entryPerimeter=0;" edge="1" parent="1" source="gy82GStOWfqsSPjw-Yjp-4" target="gy82GStOWfqsSPjw-Yjp-28">
          <mxGeometry width="160" relative="1" as="geometry">
            <mxPoint x="210" y="450" as="sourcePoint" />
            <mxPoint x="370" y="450" as="targetPoint" />
          </mxGeometry>
        </mxCell>
        <mxCell id="gy82GStOWfqsSPjw-Yjp-30" value="" style="endArrow=open;startArrow=none;endFill=0;startFill=0;endSize=8;html=1;verticalAlign=bottom;labelBackgroundColor=none;strokeWidth=1;rounded=0;exitX=1.236;exitY=0.752;exitDx=0;exitDy=0;exitPerimeter=0;" edge="1" parent="1" source="gy82GStOWfqsSPjw-Yjp-28" target="gy82GStOWfqsSPjw-Yjp-6">
          <mxGeometry width="160" relative="1" as="geometry">
            <mxPoint x="160" y="550" as="sourcePoint" />
            <mxPoint x="320" y="550" as="targetPoint" />
          </mxGeometry>
        </mxCell>
        <mxCell id="gy82GStOWfqsSPjw-Yjp-31" value="keine fremde&lt;br&gt;Hilfe erhalten" style="html=1;align=center;verticalAlign=top;rounded=1;absoluteArcSize=1;arcSize=10;dashed=0;whiteSpace=wrap;" vertex="1" parent="1">
          <mxGeometry x="230" y="330" width="140" height="40" as="geometry" />
        </mxCell>
        <mxCell id="gy82GStOWfqsSPjw-Yjp-32" value="" style="endArrow=open;startArrow=none;endFill=0;startFill=0;endSize=8;html=1;verticalAlign=bottom;labelBackgroundColor=none;strokeWidth=1;rounded=0;exitX=0.994;exitY=0.329;exitDx=0;exitDy=0;exitPerimeter=0;" edge="1" parent="1" source="gy82GStOWfqsSPjw-Yjp-28" target="gy82GStOWfqsSPjw-Yjp-31">
          <mxGeometry width="160" relative="1" as="geometry">
            <mxPoint x="190" y="490" as="sourcePoint" />
            <mxPoint x="350" y="490" as="targetPoint" />
          </mxGeometry>
        </mxCell>
        <mxCell id="gy82GStOWfqsSPjw-Yjp-33" value="" style="html=1;points=[];perimeter=orthogonalPerimeter;fillColor=strokeColor;rotation=90;" vertex="1" parent="1">
          <mxGeometry x="195" y="380" width="5" height="80" as="geometry" />
        </mxCell>
        <mxCell id="gy82GStOWfqsSPjw-Yjp-34" value="" style="endArrow=open;startArrow=none;endFill=0;startFill=0;endSize=8;html=1;verticalAlign=bottom;labelBackgroundColor=none;strokeWidth=1;rounded=0;entryX=1.009;entryY=0.722;entryDx=0;entryDy=0;entryPerimeter=0;" edge="1" parent="1" source="gy82GStOWfqsSPjw-Yjp-6" target="gy82GStOWfqsSPjw-Yjp-33">
          <mxGeometry width="160" relative="1" as="geometry">
            <mxPoint x="120" y="540" as="sourcePoint" />
            <mxPoint x="280" y="540" as="targetPoint" />
          </mxGeometry>
        </mxCell>
        <mxCell id="gy82GStOWfqsSPjw-Yjp-35" value="" style="endArrow=open;startArrow=none;endFill=0;startFill=0;endSize=8;html=1;verticalAlign=bottom;labelBackgroundColor=none;strokeWidth=1;rounded=0;entryX=-0.198;entryY=0.208;entryDx=0;entryDy=0;entryPerimeter=0;" edge="1" parent="1" source="gy82GStOWfqsSPjw-Yjp-31" target="gy82GStOWfqsSPjw-Yjp-33">
          <mxGeometry width="160" relative="1" as="geometry">
            <mxPoint x="350" y="490" as="sourcePoint" />
            <mxPoint x="510" y="490" as="targetPoint" />
          </mxGeometry>
        </mxCell>
        <mxCell id="gy82GStOWfqsSPjw-Yjp-36" value="" style="endArrow=open;startArrow=none;endFill=0;startFill=0;endSize=8;html=1;verticalAlign=bottom;labelBackgroundColor=none;strokeWidth=1;rounded=0;exitX=-0.44;exitY=0.54;exitDx=0;exitDy=0;exitPerimeter=0;" edge="1" parent="1" source="gy82GStOWfqsSPjw-Yjp-33" target="gy82GStOWfqsSPjw-Yjp-12">
          <mxGeometry width="160" relative="1" as="geometry">
            <mxPoint x="120" y="550" as="sourcePoint" />
            <mxPoint x="280" y="550" as="targetPoint" />
          </mxGeometry>
        </mxCell>
        <mxCell id="gy82GStOWfqsSPjw-Yjp-37" value="" style="rhombus;" vertex="1" parent="1">
          <mxGeometry x="585" y="485" width="30" height="30" as="geometry" />
        </mxCell>
        <mxCell id="gy82GStOWfqsSPjw-Yjp-40" value="" style="endArrow=open;startArrow=none;endFill=0;startFill=0;endSize=8;html=1;verticalAlign=bottom;labelBackgroundColor=none;strokeWidth=1;rounded=0;entryX=0;entryY=0.5;entryDx=0;entryDy=0;" edge="1" parent="1" source="gy82GStOWfqsSPjw-Yjp-12" target="gy82GStOWfqsSPjw-Yjp-37">
          <mxGeometry width="160" relative="1" as="geometry">
            <mxPoint x="240" y="560" as="sourcePoint" />
            <mxPoint x="400" y="560" as="targetPoint" />
          </mxGeometry>
        </mxCell>
        <mxCell id="gy82GStOWfqsSPjw-Yjp-41" value="" style="endArrow=open;startArrow=none;endFill=0;startFill=0;endSize=8;html=1;verticalAlign=bottom;labelBackgroundColor=none;strokeWidth=1;rounded=0;exitX=0.5;exitY=1;exitDx=0;exitDy=0;" edge="1" parent="1" source="gy82GStOWfqsSPjw-Yjp-37" target="gy82GStOWfqsSPjw-Yjp-11">
          <mxGeometry width="160" relative="1" as="geometry">
            <mxPoint x="210" y="620" as="sourcePoint" />
            <mxPoint x="370" y="620" as="targetPoint" />
          </mxGeometry>
        </mxCell>
      </root>
    </mxGraphModel>
  </diagram>
</mxfile>
